# xmcd
#
# Track frame offsets: 
#        150
#        24377
#        47177
#        60152
#        85952
#        103802
#        116102
#        134402
#        170252
#        193650
#        205502
#        232202
#
# Disc length: 3262 seconds
#
# Revision: 1
# Processed by: cddbd v1.5.2PL0 Copyright (c) Steve Scherf et al.
# Submitted via: ExactAudioCopy v0.95b4
#
DISCID=a30cbc0c
DTITLE=Various Artist - Generations of Blues
DYEAR=1998
DGENRE=Blues
TTITLE0=The Thrill is Gone - B. B. King
TTITLE1=I'm Ready - Buddy Guy
TTITLE2=Just Make Love to Me - Muddy Waters
TTITLE3=You Got To Move - Reverend Gary Davis
TTITLE4=Monday Morning Blues- -Mississippi John Hurt
TTITLE5=I Pity The Fool - Bobby "Blue" Bland
TTITLE6=Midnight Hour Blues - John Hammond
TTITLE7=Hide Away Medley - Freddie King
TTITLE8=It Serves You Right To Suffer- -John Lee Hooker
TTITLE9=Louise - Mississippi Fred McDowell
TTITLE10=Worried Blues - Skip James
TTITLE11=Cold Feet - Albert King
EXTD=
EXTT0=
EXTT1=
EXTT2=
EXTT3=
EXTT4=
EXTT5=
EXTT6=
EXTT7=
EXTT8=
EXTT9=
EXTT10=
EXTT11=
PLAYORDER=
